<svg height="512" width="512" xmlns="http://www.w3.org/2000/svg"><path d="M506.142 150.858l-50-50A20.004 20.004 0 0 0 442 95H316V40c0-22.056-17.944-40-40-40h-40c-22.056 0-40 17.944-40 40v5H70a20.004 20.004 0 0 0-14.143 5.857l-50 50c-7.81 7.811-7.81 20.475 0 28.285L41.715 165 5.857 200.858c-7.81 7.811-7.81 20.475 0 28.285l50 50A20.004 20.004 0 0 0 70 285h126v187h-56c-11.046 0-20 8.954-20 20s8.954 20 20 20h232c11.046 0 20-8.954 20-20s-8.954-20-20-20h-56V315c0-11.046-8.954-20-20-20s-20 8.954-20 20v157h-40V40h40v175c0 11.046 8.954 20 20 20h146a20.004 20.004 0 0 0 14.143-5.857l50-50c7.81-7.811 7.81-20.475-.001-28.285zM78.284 85H196v60H78.284l-30-30zm0 160l-30-30 30.001-30H196v60zm355.432-50H316v-60h117.716l30 30z"/></svg>